<svg width="443" height="101" viewBox="0 0 443 101" fill="none" xmlns="http://www.w3.org/2000/svg">
<path fill-rule="evenodd" clip-rule="evenodd" d="M302.841 77.0843C303.569 77.7457 304.496 78.0764 305.622 78.0764C306.747 78.0764 307.641 77.7457 308.303 77.0843C309.031 76.3568 309.395 75.4308 309.395 74.3064V58.8297L316.844 51.9843L337.303 77.0843C337.965 77.9441 338.759 78.4071 339.686 78.4732C340.613 78.6055 341.507 78.3079 342.368 77.5804C344.156 76.0591 344.321 74.4056 342.864 72.6199L322.207 47.2222L342.07 29.2653C342.865 28.6039 343.262 27.8433 343.262 26.9835C343.328 26.0575 342.997 25.1977 342.269 24.404C340.746 22.7505 339.124 22.6844 337.402 24.2056L309.395 49.5041V4.36371C309.395 3.23934 309.031 2.34645 308.303 1.68505C307.641 0.957518 306.747 0.59375 305.622 0.59375C304.496 0.59375 303.569 0.957518 302.841 1.68505C302.179 2.34645 301.848 3.23934 301.848 4.36371V74.3064C301.848 75.4308 302.179 76.3568 302.841 77.0843ZM58.1984 5.43022C57.9004 5.13259 57.6025 4.98378 57.3045 4.98378L56.5597 5.13259L40.0238 7.99108C39.6265 8.1895 39.5272 8.53673 39.7258 9.03278C40.0238 9.52883 40.3714 9.77685 40.7687 9.77685H40.9176C42.9039 8.78476 44.5426 8.28871 45.8337 8.28871C47.4227 8.28871 48.5648 9.18159 49.2601 10.9674C49.9553 12.6539 50.3029 15.4318 50.3029 19.301V45.1947C47.6214 48.0717 44.5923 50.3039 41.2156 51.8913C37.9382 53.4786 34.7105 54.2723 31.5324 54.2723C27.3612 54.2723 24.2328 52.8834 22.1472 50.1055C20.0616 47.3277 19.0187 43.012 19.0187 37.1587L18.8698 6.38511C18.8698 6.08748 18.6712 5.83945 18.2739 5.64103C17.9759 5.3434 17.678 5.19459 17.3801 5.19459L16.7842 5.34341L0.397259 7.99108C0 8.1895 -0.0993146 8.53673 0.0993146 9.03278C0.297944 9.52883 0.595888 9.77685 0.993146 9.77685H1.14212C3.12841 8.78476 4.81676 8.28871 6.20716 8.28871C7.7962 8.28871 8.93832 9.18159 9.63352 10.9674C10.3287 12.6539 10.6763 15.4318 10.6763 19.301V42.0696C10.6763 48.0221 12.0171 52.5858 14.6986 55.7605C17.4794 58.836 21.4023 60.3737 26.4673 60.3737C30.6386 60.3737 36.1505 59.9335 40.0238 57.9493C40.8533 57.5142 41.6157 57.1479 42.3381 56.8007C45.0753 55.4854 47.2383 54.4459 50.3029 50.9922V73.1717C50.3029 82.4974 48.9124 88.946 46.1316 92.5176C43.4501 96.0891 39.8252 97.8749 35.2567 97.8749C31.3834 97.8749 28.404 97.1308 26.3184 95.6427C24.3321 94.2538 22.3954 92.2696 20.5085 89.6901C19.3167 88.0036 18.2739 86.7634 17.3801 85.9698C16.4862 85.2753 15.3938 84.9281 14.1027 84.9281C12.7123 84.9281 11.5702 85.3249 10.6763 86.1186C9.78249 86.9123 9.33558 88.0532 9.33558 89.5413C9.33558 92.8152 11.2226 95.5435 14.9965 97.7261C18.7705 99.9087 23.3886 101 28.8509 101C38.3851 101 45.7344 98.1229 50.8987 92.3688C56.0631 86.6146 58.6453 79.0251 58.6453 69.6002V6.1743C58.6453 5.87667 58.4963 5.62864 58.1984 5.43022ZM90.5775 75.7946C94.2852 77.7126 98.4895 78.6717 103.19 78.6717C106.832 78.6717 110.209 77.9772 113.321 76.5883C116.432 75.1993 119.081 73.2813 121.266 70.8341V74.2072C121.266 75.3977 121.597 76.3568 122.259 77.0843C122.987 77.7457 123.914 78.0764 125.04 78.0764C126.165 78.0764 127.092 77.7457 127.82 77.0843C128.549 76.3568 128.913 75.3977 128.913 74.2072V27.5787C128.913 26.4544 128.549 25.5615 127.82 24.9001C127.092 24.1725 126.165 23.8088 125.04 23.8088C123.914 23.8088 122.987 24.1725 122.259 24.9001C121.597 25.5615 121.266 26.4544 121.266 27.5787V56.9448C121.266 59.7226 120.504 62.2029 118.981 64.3855C117.459 66.5681 115.373 68.2877 112.725 69.5444C110.142 70.801 107.229 71.4294 103.985 71.4294C98.8868 71.4294 94.6494 69.9412 91.2727 66.9649C87.896 63.9886 86.2076 59.4581 86.2076 53.3732V27.5787C86.2076 26.5205 85.8435 25.6276 85.1152 24.9001C84.3869 24.1725 83.4599 23.8088 82.3344 23.8088C81.275 23.8088 80.3812 24.1725 79.6529 24.9001C78.9246 25.6276 78.5604 26.5205 78.5604 27.5787V53.3732C78.5604 58.7967 79.6198 63.3934 81.7385 67.1633C83.9234 70.9333 86.8697 73.8104 90.5775 75.7946ZM150.639 78.0764C149.447 78.0764 148.487 77.7457 147.759 77.0843C147.097 76.3568 146.765 75.4308 146.765 74.3064V27.678C146.765 26.5536 147.097 25.6276 147.759 24.9001C148.487 24.1725 149.447 23.8088 150.639 23.8088C151.764 23.8088 152.658 24.1725 153.32 24.9001C154.049 25.6276 154.413 26.5536 154.413 27.678V29.8606C156.267 27.7441 158.451 26.1237 160.967 24.9993C163.483 23.8088 166.264 23.2135 169.31 23.2135C173.018 23.2135 176.295 24.0403 179.142 25.6938C182.055 27.3473 184.373 29.6291 186.094 32.5392C187.948 29.6291 190.431 27.3473 193.543 25.6938C196.655 24.0403 200.13 23.2135 203.971 23.2135C207.877 23.2135 211.32 24.1395 214.299 25.9914C217.345 27.8433 219.695 30.4558 221.351 33.8289C223.072 37.2021 223.933 41.1705 223.933 45.7341V74.3064C223.933 75.4308 223.569 76.3568 222.84 77.0843C222.178 77.7457 221.284 78.0764 220.159 78.0764C219.033 78.0764 218.106 77.7457 217.378 77.0843C216.65 76.3568 216.286 75.4308 216.286 74.3064V45.7341C216.286 41.0382 215.061 37.3343 212.611 34.6226C210.161 31.8448 207.016 30.4558 203.176 30.4558C199.071 30.4558 195.694 31.8448 193.046 34.6226C190.464 37.3343 189.206 40.972 189.272 45.5357V45.7341V74.3064C189.272 75.4308 188.908 76.3568 188.18 77.0843C187.518 77.7457 186.624 78.0764 185.498 78.0764C184.373 78.0764 183.446 77.7457 182.717 77.0843C181.989 76.3568 181.625 75.4308 181.625 74.3064V45.7341C181.625 41.0382 180.4 37.3343 177.95 34.6226C175.501 31.8448 172.356 30.4558 168.515 30.4558C164.41 30.4558 161.034 31.8117 158.385 34.5234C155.737 37.169 154.413 40.6413 154.413 44.9404V74.3064C154.413 75.4308 154.049 76.3568 153.32 77.0843C152.658 77.7457 151.764 78.0764 150.639 78.0764ZM435.994 78.0764C432.485 78.0764 429.34 77.2497 426.559 75.5962C423.844 73.9427 421.693 71.6939 420.104 68.8499C418.515 65.9398 417.72 62.6328 417.72 58.929V32.44H411.265C410.271 32.44 409.444 32.1424 408.782 31.5471C408.12 30.8857 407.789 30.0921 407.789 29.1661C407.789 28.174 408.12 27.3803 408.782 26.7851C409.444 26.1237 410.271 25.793 411.265 25.793H417.72V10.4155C417.72 9.29112 418.051 8.36516 418.713 7.63762C419.442 6.91009 420.368 6.54632 421.494 6.54632C422.62 6.54632 423.547 6.91009 424.275 7.63762C425.003 8.36516 425.367 9.29112 425.367 10.4155V25.793H436.59C437.583 25.793 438.411 26.1237 439.073 26.7851C439.735 27.3803 440.066 28.174 440.066 29.1661C440.066 30.0921 439.735 30.8857 439.073 31.5471C438.411 32.1424 437.583 32.44 436.59 32.44H425.367V58.929C425.367 62.3021 426.36 65.0799 428.347 67.2626C430.333 69.379 432.882 70.4373 435.994 70.4373H438.675C439.735 70.4373 440.596 70.801 441.258 71.5286C441.92 72.2561 442.251 73.1821 442.251 74.3064C442.251 75.4308 441.854 76.3568 441.059 77.0843C440.264 77.7457 439.271 78.0764 438.08 78.0764H435.994ZM378.366 78.5724C373.003 78.5724 368.236 77.415 364.064 75.1001C359.959 72.7191 356.715 69.4452 354.331 65.2784C352.014 61.1116 350.855 56.3495 350.855 50.9922C350.855 45.5687 351.948 40.8067 354.133 36.706C356.384 32.5392 359.463 29.2653 363.369 26.8843C367.275 24.5032 371.778 23.3127 376.876 23.3127C381.908 23.3127 386.278 24.4702 389.985 26.7851C393.759 29.0338 396.673 32.1754 398.725 36.21C400.778 40.2445 401.804 44.8412 401.804 50.0001C401.804 51.0583 401.473 51.9181 400.811 52.5795C400.149 53.1748 399.288 53.4724 398.229 53.4724H358.105C358.503 57.044 359.595 60.2187 361.383 62.9965C363.17 65.7083 365.521 67.8578 368.434 69.4452C371.347 70.9664 374.658 71.727 378.366 71.727C380.749 71.727 383.133 71.3301 385.516 70.5365C387.966 69.6767 389.919 68.6184 391.376 67.3618C392.104 66.7665 392.932 66.4689 393.859 66.4689C394.786 66.4027 395.58 66.6342 396.242 67.1633C397.103 67.957 397.533 68.8168 397.533 69.7428C397.6 70.6687 397.235 71.4624 396.441 72.1238C394.256 73.9757 391.475 75.53 388.098 76.7867C384.722 77.9772 381.477 78.5724 378.366 78.5724ZM376.876 30.1582C371.778 30.1582 367.573 31.7455 364.263 34.9202C360.952 38.0288 358.966 42.0964 358.304 47.123H394.653C394.124 42.0964 392.27 38.0288 389.092 34.9202C385.98 31.7455 381.908 30.1582 376.876 30.1582ZM251.171 75.1001C255.343 77.415 260.11 78.5725 265.473 78.5725C268.585 78.5725 271.829 77.9772 275.206 76.7867C278.582 75.53 281.363 73.9758 283.548 72.1239C284.342 71.4625 284.707 70.6688 284.64 69.7428C284.64 68.8169 284.21 67.957 283.349 67.1634C282.687 66.6343 281.893 66.4028 280.966 66.4689C280.039 66.4689 279.211 66.7665 278.483 67.3618C277.026 68.6184 275.073 69.6767 272.623 70.5365C270.24 71.3302 267.856 71.727 265.473 71.727C261.765 71.727 258.454 70.9664 255.541 69.4452C252.628 67.8578 250.278 65.7083 248.49 62.9966C246.702 60.2187 245.61 57.044 245.213 53.4725H285.336C286.395 53.4725 287.256 53.1748 287.918 52.5796C288.58 51.9182 288.911 51.0584 288.911 50.0001C288.911 44.8412 287.885 40.2445 285.832 36.21C283.78 32.1755 280.866 29.0338 277.093 26.7851C273.385 24.4702 269.015 23.3128 263.983 23.3128C258.885 23.3128 254.383 24.5033 250.476 26.8843C246.57 29.2653 243.491 32.5392 241.24 36.706C239.055 40.8067 237.963 45.5688 237.963 50.9922C237.963 56.3495 239.121 61.1116 241.439 65.2784C243.822 69.4452 247.066 72.7191 251.171 75.1001ZM251.37 34.9203C254.681 31.7456 258.885 30.1582 263.983 30.1582C269.015 30.1582 273.087 31.7456 276.199 34.9203C279.377 38.0288 281.231 42.0964 281.76 47.123H245.411C246.073 42.0964 248.06 38.0288 251.37 34.9203Z" fill="url(#paint0_linear)"/>
<defs>
<linearGradient id="paint0_linear" x1="-89.9243" y1="101" x2="527.753" y2="101" gradientUnits="userSpaceOnUse">
<stop stop-color="#72EDF2"/>
<stop offset="1" stop-color="#5151E5"/>
</linearGradient>
</defs>
</svg>
